<?xml version="1.0" encoding="UTF-8"?>
<svg width="100px" height="100px" viewBox="0 0 100 100" version="1.1" xmlns="http://www.w3.org/2000/svg" xmlns:xlink="http://www.w3.org/1999/xlink">
    <!-- Generator: Sketch 45.2 (43514) - http://www.bohemiancoding.com/sketch -->
    <title>Combined Shape</title>
    <desc>Created with Sketch.</desc>
    <defs>
        <linearGradient x1="0%" y1="100%" x2="100%" y2="0%" id="linearGradient-1">
            <stop stop-color="#495AFF" offset="0%"></stop>
            <stop stop-color="#0ACFFE" offset="100%"></stop>
        </linearGradient>
    </defs>
    <g id="登录" stroke="none" stroke-width="1" fill="none" fill-rule="evenodd">
        <g id="2.首页登录/填充及错误信息" transform="translate(-1450.000000, -260.000000)" fill="url(#linearGradient-1)">
            <g id="Group" transform="translate(1230.000000, 100.000000)">
                <g id="Group-2" transform="translate(120.000000, 160.000000)">
                    <g id="Group" transform="translate(100.000000, 0.000000)">
                        <path d="M77.5739683,90.6983316 C78.6909835,95.5546495 83.0405417,99.1761559 88.2359481,99.1761559 C94.278058,99.1761559 99.1761559,94.278058 99.1761559,88.2359481 C99.1761559,83.0405417 95.5546495,78.6909835 90.6983316,77.5739683 C96.049337,69.6964483 99.1761559,60.1859884 99.1761559,49.9452208 C99.1761559,47.5773385 99.0081875,45.226898 98.6754491,42.9071106 C97.8175797,36.9262117 92.2736626,32.7731756 86.2927636,33.631045 C80.3118647,34.4889144 76.1588286,40.0328315 77.016698,46.0137305 C77.2019613,47.3053503 77.2957403,48.6176321 77.2957403,49.9452208 C77.2957403,65.0504956 65.0504956,77.2957403 49.9452208,77.2957403 C34.839946,77.2957403 22.5947013,65.0504956 22.5947013,49.9452208 C22.5947013,34.839946 34.839946,22.5947013 49.9452208,22.5947013 C51.2773248,22.5947013 52.5940166,22.6891192 53.8898844,22.8756363 C59.8703647,23.73642 65.4163049,19.586086 66.2770886,13.6056057 C67.1378722,7.62512549 62.9875382,2.07918531 57.0070579,1.21840161 C54.6795798,0.88340255 52.3211845,0.714285714 49.9452208,0.714285714 C22.7557261,0.714285714 0.714285714,22.7557261 0.714285714,49.9452208 C0.714285714,77.1347154 22.7557261,99.1761559 49.9452208,99.1761559 C60.1859884,99.1761559 69.6964483,96.049337 77.5739683,90.6983316 Z" id="Combined-Shape"></path>
                    </g>
                </g>
            </g>
        </g>
    </g>
</svg>